# Blender 5.1.2
# www.blender.org
o Shirt2
v -0.102256 -0.211201 3.831267
v 0.264170 -0.223220 3.907975
v 0.297055 -0.169067 3.903670
v 0.316049 -0.114514 3.896437
v 0.318181 -0.057167 3.895489
v 0.218754 -0.301434 3.910918
v 0.313049 0.000000 3.896226
v -0.171380 -0.276031 3.701453
v -0.241209 -0.134574 3.694436
v -0.205853 -0.304908 3.576483
v -0.312518 0.000000 3.585318
v 0.395281 -0.276483 3.737246
v 0.381333 -0.353859 3.730585
v 0.367407 -0.378609 3.585983
v 0.399417 -0.297256 3.585107
v 0.431484 -0.103967 3.596670
v 0.419798 -0.201257 3.575494
v 0.395800 -0.201863 3.394058
v 0.433092 0.000000 3.600749
v 0.363255 -0.426552 3.733726
v 0.327999 -0.440087 3.600873
v -0.388394 0.000000 2.993306
v 0.418499 0.000000 3.023767
v 0.413622 -0.093526 3.017265
v 0.394251 -0.187707 3.004415
v 0.362603 -0.274282 3.003494
v 0.254649 -0.363032 3.005902
v 0.137703 -0.451646 3.017946
v -0.025819 -0.473643 3.013108
v -0.173611 -0.447668 3.010748
v -0.361674 -0.163283 3.210117
v 0.399144 -0.098622 3.233902
v 0.369355 -0.191395 3.209611
v 0.330033 -0.278378 3.206773
v 0.250136 -0.405242 3.216138
v 0.005606 -0.475019 3.236408
v -0.136959 -0.247648 3.778731
v -0.201178 -0.121752 3.746797
v 0.363255 0.000000 3.823111
v 0.370029 -0.073935 3.821542
v 0.410638 -0.092757 3.729376
v 0.406924 0.000000 3.731664
v 0.370691 -0.149512 3.820886
v 0.408097 -0.182866 3.717992
v 0.356555 -0.225274 3.831305
v 0.337238 -0.302261 3.838176
v 0.315063 -0.380061 3.845688
v -0.070706 -0.363602 3.800218
v 0.046724 -0.477140 3.434847
v 0.187727 -0.471189 3.448941
v 0.123158 -0.477534 3.530140
v 0.355301 -0.504568 3.739464
v 0.319382 -0.504301 3.618117
v -0.037914 -0.483551 3.606189
v -0.053092 -0.479058 3.709404
v 0.125251 -0.442963 3.920523
v 0.224413 -0.444410 3.914769
v 0.312169 -0.480001 3.852240
v -0.031858 -0.469366 3.797457
v 0.333238 -0.711495 3.760400
v 0.278880 -0.714547 3.844717
v 0.190615 -0.714419 3.888312
v 0.101305 -0.713148 3.884413
v 0.036201 -0.712213 3.843157
v 0.002887 -0.710442 3.784245
v 0.241536 -0.713477 3.600089
v 0.317054 -0.596121 3.635943
v 0.011067 -0.486906 3.531479
v 0.034412 -0.586261 3.860972
v 0.113418 -0.586095 3.907187
v 0.208476 -0.587780 3.906623
v 0.300114 -0.597304 3.848878
v -0.339526 -0.167894 3.410071
v -0.084805 -0.462117 3.455145
v -0.136231 -0.450714 3.234446
v 0.181029 -0.133137 3.973609
v -0.002095 -0.302526 3.881006
v 0.110544 -0.302940 3.912284
v -0.281218 -0.153014 3.590581
v -0.271679 0.000000 3.683132
v 0.424633 -0.104742 3.407668
v 0.357772 -0.293123 3.394462
v -0.102346 -0.408971 3.597888
v -0.102894 -0.392466 3.708180
v 0.438316 0.000000 3.409091
v -0.293855 -0.295641 2.996962
v -0.364978 -0.156673 2.987572
v -0.275004 -0.301748 3.215802
v -0.392556 0.000000 3.220002
v 0.410828 0.000000 3.244380
v 0.150239 -0.459345 3.235966
v -0.235058 0.000000 3.731624
v 0.222452 -0.492884 3.534924
v 0.031705 -0.448726 3.879611
v 0.338086 -0.848398 3.678998
v 0.334338 -0.834989 3.779624
v 0.311556 -0.715962 3.657392
v 0.003472 -0.705558 3.721684
v 0.029810 -0.698804 3.651392
v 0.076453 -0.849881 3.600961
v 0.077661 -0.700454 3.605168
v 0.164805 -0.853078 3.574605
v 0.152879 -0.706304 3.584792
v 0.269257 -0.859212 3.597172
v 0.233912 -0.583257 3.578207
v 0.142720 -0.571405 3.564361
v 0.057286 -0.566661 3.578617
v 0.004475 -0.570624 3.630073
v -0.020577 -0.579456 3.713212
v -0.014141 -0.585996 3.790730
v 0.347876 -0.600213 3.746149
v 0.283230 -0.413044 3.412739
v -0.376364 0.000000 3.411394
v -0.239657 -0.314841 3.413170
v -0.124490 -0.079999 3.822568
v -0.367933 -0.154680 2.772114
v -0.389012 0.000000 2.771817
v 0.512438 0.000000 2.795331
v 0.505920 -0.095859 2.792571
v 0.486263 -0.202670 2.783659
v 0.456818 -0.306708 2.782210
v 0.336362 -0.438616 2.783876
v 0.162425 -0.516060 2.805924
v 0.001536 -0.527649 2.810388
v -0.161118 -0.500736 2.801813
v -0.297318 -0.338001 2.784776
v -0.027158 -0.186342 3.904760
v 0.228015 -0.020395 3.984591
v 0.218576 -0.089446 3.981598
v 0.128523 -0.176464 3.956858
v 0.065213 -0.190455 3.938430
v -0.151514 -0.089970 3.804445
v -0.175547 0.000000 3.787575
v -0.147226 0.000000 3.809516
v -0.090966 -0.153821 3.856123
v 0.267188 -0.831720 3.861215
v 0.176014 -0.832345 3.900688
v 0.086337 -0.833338 3.895540
v 0.022276 -0.835799 3.850405
v -0.005386 -0.839796 3.785962
v -0.003116 -0.842355 3.719072
v 0.022863 -0.841942 3.655999
v -0.148472 0.091067 3.802433
v -0.102256 0.211201 3.831267
v 0.264170 0.223220 3.907975
v 0.297055 0.169067 3.903670
v 0.316049 0.114514 3.896437
v -0.281218 0.153014 3.590581
v -0.205853 0.304908 3.576483
v 0.395281 0.276483 3.737246
v 0.381333 0.353859 3.730585
v 0.399417 0.297256 3.585107
v 0.395800 0.201863 3.394058
v -0.102894 0.392466 3.708180
v 0.363255 0.426552 3.733726
v 0.413622 0.093526 3.017265
v 0.394251 0.187707 3.004415
v 0.254649 0.363032 3.005902
v -0.173611 0.447668 3.010748
v 0.399144 0.098622 3.233902
v 0.369355 0.191395 3.209611
v 0.150239 0.459345 3.235966
v -0.136959 0.247648 3.778731
v 0.370029 0.073935 3.821542
v 0.410638 0.092757 3.729376
v 0.370691 0.149512 3.820886
v 0.408097 0.182866 3.717992
v 0.356555 0.225274 3.831305
v 0.315063 0.380061 3.845688
v 0.187727 0.471189 3.448941
v 0.355301 0.504568 3.739464
v 0.319382 0.504301 3.618117
v 0.125251 0.442963 3.920523
v 0.224413 0.444410 3.914769
v 0.312169 0.480001 3.852240
v 0.311556 0.715962 3.657392
v 0.333238 0.711495 3.760400
v 0.278880 0.714547 3.844717
v 0.190615 0.714419 3.888312
v 0.317054 0.596121 3.635943
v 0.113418 0.586095 3.907187
v 0.208476 0.587780 3.906623
v 0.300114 0.597304 3.848878
v 0.347876 0.600213 3.746149
v -0.339526 0.167894 3.410071
v 0.224922 0.060502 3.982634
v 0.318181 0.057167 3.895489
v -0.002095 0.302526 3.881006
v 0.110544 0.302940 3.912284
v 0.218754 0.301434 3.910918
v -0.171380 0.276031 3.701453
v -0.241209 0.134574 3.694436
v 0.367407 0.378609 3.585983
v 0.431484 0.103967 3.596670
v 0.419798 0.201257 3.575494
v 0.424633 0.104742 3.407668
v 0.357772 0.293123 3.394462
v -0.102346 0.408971 3.597888
v 0.327999 0.440087 3.600873
v -0.293855 0.295641 2.996962
v -0.364978 0.156673 2.987572
v 0.362603 0.274282 3.003494
v 0.137703 0.451646 3.017946
v -0.025819 0.473643 3.013108
v -0.275004 0.301748 3.215802
v -0.361674 0.163283 3.210117
v 0.330033 0.278378 3.206773
v 0.250136 0.405242 3.216138
v 0.005606 0.475019 3.236408
v -0.201178 0.121752 3.746797
v 0.337238 0.302261 3.838176
v -0.070706 0.363602 3.800218
v 0.046724 0.477140 3.434847
v 0.222452 0.492884 3.534924
v 0.123158 0.477534 3.530140
v -0.037914 0.483551 3.606189
v -0.053092 0.479058 3.709404
v 0.031705 0.448726 3.879611
v -0.031858 0.469366 3.797457
v 0.338086 0.848398 3.678998
v 0.101305 0.713148 3.884413
v 0.036201 0.712213 3.843157
v 0.002887 0.710442 3.784245
v 0.003472 0.705558 3.721684
v 0.029810 0.698804 3.651392
v 0.077661 0.700454 3.605168
v 0.164805 0.855422 3.574605
v 0.152879 0.706304 3.584792
v 0.269257 0.861557 3.597172
v 0.241536 0.713477 3.600089
v 0.233912 0.583257 3.578207
v 0.142720 0.571405 3.564361
v 0.057286 0.566661 3.578617
v 0.011067 0.486906 3.531479
v 0.004475 0.570624 3.630073
v -0.020577 0.579456 3.713212
v -0.014141 0.585996 3.790730
v 0.034412 0.586261 3.860972
v 0.283230 0.413044 3.412739
v -0.239657 0.314841 3.413170
v -0.084805 0.462117 3.455145
v -0.136231 0.450714 3.234446
v -0.367933 0.154680 2.772114
v 0.505920 0.095859 2.792571
v 0.486263 0.202670 2.783659
v 0.456818 0.306708 2.782210
v 0.336362 0.438616 2.783876
v 0.162425 0.516060 2.805924
v 0.001536 0.527649 2.810388
v -0.161118 0.500736 2.801813
v -0.297318 0.338001 2.784776
v -0.027158 0.186342 3.904760
v -0.087117 0.153821 3.856123
v 0.185175 0.131199 3.974830
v 0.128523 0.176464 3.956858
v 0.065213 0.190455 3.938430
v -0.125620 0.080564 3.821560
v 0.334338 0.834989 3.779624
v 0.267188 0.831720 3.861215
v 0.176014 0.832345 3.900688
v 0.086337 0.833338 3.895540
v 0.022276 0.835799 3.850405
v -0.005386 0.839796 3.785962
v -0.003116 0.842355 3.719072
v 0.022863 0.841942 3.655999
v 0.076453 0.849940 3.600961
s 1
f 135 132 1
f 129 76 2 3
f 128 129 4 5
f 129 3 4
f 1 77 127 135
f 130 131 78 6
f 131 127 77 78
f 128 5 7
f 76 130 6 2
f 8 9 79 10
f 9 80 11 79
f 16 17 18 81
f 17 15 82 18
f 10 83 84 8
f 81 85 19 16
f 88 31 87 86
f 31 89 22 87
f 90 32 24 23
f 35 91 28 27
f 91 36 29 28
f 38 92 80 9
f 8 84 48 37
f 49 50 93 51
f 54 55 84 83
f 56 57 6 78
f 94 56 78 77
f 55 59 48 84
f 67 105 93 53
f 105 106 51 93
f 106 107 68 51
f 107 108 54 68
f 108 109 55 54
f 109 110 59 55
f 110 69 94 59
f 69 70 56 94
f 72 111 52 58
f 111 67 53 52
f 53 93 50 21
f 50 112 14 21
f 11 113 73 79
f 73 114 10 79
f 114 74 83 10
f 59 94 77 48
f 48 77 1 37
f 1 132 38 37
f 132 133 92 38
f 68 54 83 74
f 86 30 75 88
f 36 91 50 49
f 97 66 105 67
f 66 103 106 105
f 103 101 107 106
f 101 99 108 107
f 99 98 109 108
f 98 65 110 109
f 65 64 69 110
f 61 60 111 72
f 60 97 67 111
f 73 113 89 31
f 31 88 114 73
f 88 75 74 114
f 15 14 112 82
f 50 91 35 112
f 82 112 35 34
f 18 82 34 33
f 81 18 33 32
f 90 85 81 32
f 76 3 2
f 129 4 3 76
f 12 13 14 15
f 13 20 21 14
f 32 33 25 24
f 33 34 26 25
f 34 35 27 26
f 37 38 9 8
f 39 40 41 42
f 40 43 44 41
f 43 45 12 44
f 45 46 13 12
f 46 47 20 13
f 20 52 53 21
f 58 52 20 47
f 96 95 97 60
f 136 96 60 61
f 137 136 61 62
f 138 137 62 63
f 139 138 63 64
f 140 139 64 65
f 141 140 65 98
f 142 141 98 99
f 100 142 99 101
f 102 100 101 103
f 104 102 103 66
f 95 104 66 97
f 70 71 57 56
f 71 72 58 57
f 49 51 68 74
f 7 5 40 39
f 5 4 43 40
f 4 3 45 43
f 3 2 46 45
f 2 6 47 46
f 57 58 47 6
f 36 75 30 29
f 36 49 74 75
f 64 63 70 69
f 63 62 71 70
f 62 61 72 71
f 16 19 42 41
f 41 44 17 16
f 44 12 15 17
f 132 135 115
f 133 132 115 134
f 87 22 117 116
f 23 24 119 118
f 24 25 120 119
f 25 26 121 120
f 26 27 122 121
f 27 28 123 122
f 28 29 124 123
f 29 30 125 124
f 126 125 30 86
f 86 87 116 126
f 132 133 134
f 134 115 132
f 253 144 143
f 254 146 145
f 186 187 147
f 186 147 146 254
f 144 253 252 188
f 255 190 189 256
f 256 189 188 252
f 128 7 187 186
f 254 145 190 255
f 191 149 148 192
f 192 148 11 80
f 150 152 193 151
f 194 196 153 195
f 195 153 197 152
f 149 191 154 198
f 196 194 19 85
f 151 193 199 155
f 205 200 201 206
f 206 201 22 89
f 90 23 156 160
f 161 157 202 207
f 207 202 158 208
f 208 158 203 162
f 162 203 204 209
f 163 191 192 210
f 210 192 80 92
f 168 150 151 211
f 211 151 155 169
f 191 163 212 154
f 213 215 214 170
f 155 199 172 171
f 216 198 154 217
f 173 189 190 174
f 218 188 189 173
f 217 154 212 219
f 180 172 214 231
f 231 214 215 232
f 232 215 234 233
f 233 234 216 235
f 235 216 217 236
f 236 217 219 237
f 237 219 218 238
f 238 218 173 181
f 172 199 170 214
f 170 199 193 239
f 11 148 185 113
f 185 148 149 240
f 240 149 198 241
f 213 241 234 215
f 219 212 188 218
f 212 163 144 188
f 144 163 210 143
f 143 210 92 133
f 7 39 164 187
f 187 164 166 147
f 146 168 211 145
f 145 211 169 190
f 174 190 169 175
f 234 241 198 216
f 200 205 242 159
f 209 204 159 242
f 209 242 241 213
f 209 213 170 162
f 176 180 231 230
f 230 231 232 228
f 228 232 233 226
f 226 233 235 225
f 225 235 236 224
f 224 236 237 223
f 223 237 238 222
f 222 238 181 221
f 221 181 182 179
f 185 206 89 113
f 206 185 240 205
f 205 240 241 242
f 194 165 42 19
f 165 194 195 167
f 167 195 152 150
f 152 197 239 193
f 170 239 208 162
f 197 207 208 239
f 153 161 207 197
f 196 160 161 153
f 90 160 196 85
f 134 257 143
f 143 257 253
f 160 156 157 161
f 39 42 165 164
f 164 165 167 166
f 166 167 150 168
f 175 169 155 171
f 258 177 176 220
f 259 178 177 258
f 260 179 178 259
f 261 221 179 260
f 262 222 221 261
f 263 223 222 262
f 264 224 223 263
f 265 225 224 264
f 266 226 225 265
f 227 228 226 266
f 229 230 228 227
f 220 176 230 229
f 181 173 174 182
f 182 174 175 183
f 183 175 171 184
f 184 171 172 180
f 147 166 168 146
f 179 182 183 178
f 178 183 184 177
f 177 184 180 176
f 133 143 257 134
f 201 243 117 22
f 23 118 244 156
f 156 244 245 157
f 157 245 246 202
f 202 246 247 158
f 158 247 248 203
f 203 248 249 204
f 204 249 250 159
f 251 200 159 250
f 200 251 243 201
f 143 133 134
