# Blender 5.1.2
# www.blender.org
o Shirt2
v -0.025972 -0.204707 3.877422
v 0.340454 -0.216726 3.954129
v 0.373339 -0.162573 3.949825
v 0.392333 -0.108020 3.942591
v 0.394465 -0.050673 3.941643
v 0.295038 -0.294940 3.957072
v 0.389333 0.006494 3.942380
v -0.095096 -0.269537 3.747607
v -0.164925 -0.128080 3.740591
v -0.129569 -0.298414 3.622638
v -0.236234 0.006494 3.631473
v 0.471565 -0.269989 3.783401
v 0.457617 -0.347365 3.776740
v 0.443691 -0.372115 3.632138
v 0.475701 -0.290762 3.631262
v 0.507768 -0.097473 3.642824
v 0.496082 -0.194763 3.621649
v 0.472084 -0.195369 3.440212
v 0.509376 0.006494 3.646904
v 0.439539 -0.420058 3.779881
v 0.404283 -0.433593 3.647027
v -0.312110 0.006494 3.039460
v 0.494783 0.006494 3.069921
v 0.489906 -0.087032 3.063420
v 0.470535 -0.181213 3.050570
v 0.438887 -0.267788 3.049649
v 0.330933 -0.356538 3.052057
v 0.213987 -0.445152 3.064101
v 0.050465 -0.467149 3.059263
v -0.097327 -0.441174 3.056902
v -0.285390 -0.156789 3.256272
v 0.475428 -0.092128 3.280056
v 0.445639 -0.184901 3.255765
v 0.406317 -0.271884 3.252928
v 0.326420 -0.398748 3.262292
v 0.081890 -0.468525 3.282562
v -0.060675 -0.241154 3.824886
v -0.124894 -0.115258 3.792952
v 0.439539 0.006494 3.869266
v 0.446313 -0.067441 3.867697
v 0.486922 -0.086263 3.775531
v 0.483208 0.006494 3.777818
v 0.446975 -0.143018 3.867040
v 0.484381 -0.176372 3.764147
v 0.432839 -0.218780 3.877460
v 0.413522 -0.295767 3.884331
v 0.391347 -0.373567 3.891843
v 0.001392 -0.439050 3.846373
v 0.123008 -0.470646 3.481002
v 0.264011 -0.464695 3.495095
v 0.199442 -0.471040 3.576294
v 0.431585 -0.498074 3.785619
v 0.395666 -0.497807 3.664272
v 0.038370 -0.477057 3.652344
v 0.023192 -0.472564 3.755558
v 0.201535 -0.436469 3.966677
v 0.300697 -0.437916 3.960923
v 0.388453 -0.473507 3.898395
v 0.032970 -0.490386 3.843611
v 0.409522 -0.705001 3.806555
v 0.355164 -0.708053 3.890872
v 0.266899 -0.707925 3.934467
v 0.177589 -0.706654 3.930568
v 0.112485 -0.705719 3.889312
v 0.079171 -0.703948 3.830400
v 0.317820 -0.706983 3.646244
v 0.393338 -0.589627 3.682097
v 0.087351 -0.480412 3.577633
v 0.110696 -0.579767 3.907126
v 0.189702 -0.579601 3.953341
v 0.284760 -0.581286 3.952777
v 0.376398 -0.590810 3.895032
v -0.263242 -0.161400 3.456225
v -0.008521 -0.455623 3.501299
v -0.059947 -0.444220 3.280601
v 0.257313 -0.126643 4.019763
v 0.074189 -0.296032 3.927161
v 0.186828 -0.296446 3.958438
v -0.204934 -0.146520 3.636735
v -0.195395 0.006494 3.729286
v 0.500917 -0.098248 3.453823
v 0.434056 -0.286629 3.440617
v -0.026062 -0.402477 3.644042
v -0.038121 -0.445811 3.754334
v 0.514600 0.006494 3.455245
v -0.217571 -0.289147 3.043117
v -0.288694 -0.150179 3.033726
v -0.198720 -0.295254 3.261956
v -0.316272 0.006494 3.266156
v 0.487112 0.006494 3.290534
v 0.226523 -0.452851 3.282120
v -0.158774 0.006494 3.777778
v 0.298736 -0.486390 3.581079
v 0.106706 -0.448589 3.925766
v -0.298611 -0.578264 3.561909
v -0.304888 -0.568909 3.662868
v 0.387840 -0.709468 3.703547
v 0.079756 -0.699064 3.767838
v 0.106094 -0.692310 3.697546
v -0.374561 -0.334064 3.466296
v 0.153945 -0.693960 3.651323
v -0.343208 -0.418442 3.446090
v 0.229163 -0.699810 3.630946
v -0.317624 -0.518351 3.474738
v 0.310196 -0.576763 3.624362
v 0.219004 -0.564911 3.610516
v 0.133570 -0.560167 3.624772
v 0.080759 -0.564130 3.676228
v 0.055707 -0.572962 3.759367
v 0.062143 -0.579502 3.836884
v 0.424160 -0.593719 3.792304
v 0.359514 -0.406550 3.458894
v -0.300080 0.006494 3.457548
v -0.163373 -0.308347 3.459325
v -0.048206 -0.073505 3.868722
v -0.419506 -0.238710 2.629796
v -0.440585 -0.084030 2.629499
v 0.460865 -0.084030 2.653013
v 0.454347 -0.179889 2.650253
v 0.434690 -0.286700 2.641341
v 0.405245 -0.390738 2.639892
v 0.284789 -0.522646 2.641558
v 0.110852 -0.600090 2.663606
v -0.050037 -0.611679 2.668070
v -0.212691 -0.584766 2.659495
v -0.348891 -0.422031 2.642458
v 0.049126 -0.179848 3.950914
v 0.304299 -0.013901 4.030746
v 0.294860 -0.082952 4.027752
v 0.204807 -0.169970 4.003012
v 0.141497 -0.183961 3.984585
v -0.075230 -0.083476 3.850600
v -0.099263 0.006494 3.833730
v -0.070942 0.006494 3.855670
v -0.014682 -0.147327 3.902277
v -0.338600 -0.503741 3.738983
v -0.376713 -0.417868 3.771301
v -0.406934 -0.334070 3.759724
v -0.422965 -0.275316 3.710348
v -0.424818 -0.251502 3.644291
v -0.414839 -0.255327 3.578172
v -0.394787 -0.280346 3.517962
v -0.072188 0.097561 3.848588
v -0.025972 0.217695 3.877422
v 0.340454 0.229714 3.954129
v 0.373339 0.175561 3.949825
v 0.392333 0.121008 3.942591
v -0.204934 0.159508 3.636735
v -0.129569 0.311402 3.622638
v 0.471565 0.282977 3.783401
v 0.457617 0.360353 3.776740
v 0.475701 0.303750 3.631262
v 0.472084 0.208357 3.440212
v -0.026610 0.398960 3.754334
v 0.439539 0.433046 3.779881
v 0.489906 0.100020 3.063420
v 0.470535 0.194201 3.050570
v 0.330933 0.369526 3.052057
v -0.097327 0.454162 3.056902
v 0.475428 0.105116 3.280056
v 0.445639 0.197889 3.255765
v 0.226523 0.465839 3.282120
v -0.060675 0.254142 3.824886
v 0.446313 0.080429 3.867697
v 0.486922 0.099251 3.775531
v 0.446975 0.156006 3.867040
v 0.484381 0.189360 3.764147
v 0.432839 0.231768 3.877460
v 0.391347 0.386555 3.891843
v 0.264011 0.477683 3.495095
v 0.431585 0.511062 3.785619
v 0.395666 0.510795 3.664272
v 0.201535 0.449457 3.966677
v 0.300697 0.450904 3.960923
v 0.388453 0.486495 3.898395
v 0.688396 0.451705 3.780707
v 0.614582 0.503056 3.874784
v 0.588494 0.529757 3.950552
v 0.536738 0.518791 3.985727
v 0.393338 0.602615 3.682097
v 0.189702 0.592589 3.953341
v 0.284760 0.594274 3.952777
v 0.376398 0.603798 3.895032
v 0.424160 0.606707 3.792304
v -0.263242 0.174388 3.456225
v 0.301206 0.066996 4.028789
v 0.394465 0.063661 3.941643
v 0.074189 0.309020 3.927161
v 0.186828 0.309434 3.958438
v 0.295038 0.307928 3.957072
v -0.095096 0.282525 3.747607
v -0.164925 0.141068 3.740591
v 0.443691 0.385103 3.632138
v 0.507768 0.110461 3.642824
v 0.496082 0.207751 3.621649
v 0.500917 0.111236 3.453823
v 0.434056 0.299617 3.440617
v -0.026062 0.415465 3.644042
v 0.404283 0.446581 3.647027
v -0.217571 0.302135 3.043117
v -0.288694 0.163167 3.033726
v 0.438887 0.280776 3.049649
v 0.213987 0.458140 3.064101
v 0.050465 0.480137 3.059263
v -0.198720 0.308242 3.261956
v -0.285390 0.169777 3.256272
v 0.406317 0.284872 3.252928
v 0.326420 0.411736 3.262292
v 0.081890 0.481513 3.282562
v -0.124894 0.128246 3.792952
v 0.413522 0.308755 3.884331
v 0.005578 0.370096 3.846373
v 0.123008 0.483634 3.481002
v 0.298736 0.499378 3.581079
v 0.199442 0.484028 3.576294
v 0.038370 0.490045 3.652344
v 0.023192 0.485552 3.755558
v 0.107989 0.455220 3.925766
v 0.044426 0.475860 3.843611
v 0.862778 0.409521 3.782019
v 0.177589 0.719642 3.930568
v 0.112485 0.718707 3.889312
v 0.079171 0.716936 3.830400
v 0.079756 0.712052 3.767838
v 0.106094 0.705298 3.697546
v 0.153945 0.706948 3.651323
v 0.763398 0.536372 3.659521
v 0.229163 0.712798 3.630946
v 0.835742 0.465403 3.693972
v 0.535327 0.552488 3.694929
v 0.310196 0.589751 3.624362
v 0.219004 0.577899 3.610516
v 0.133570 0.573155 3.624772
v 0.087351 0.493400 3.577633
v 0.080759 0.577118 3.676228
v 0.055707 0.585950 3.759367
v 0.062143 0.592490 3.836884
v 0.110696 0.592755 3.907126
v 0.359514 0.419538 3.458894
v -0.163373 0.321335 3.459325
v -0.008521 0.468611 3.501299
v -0.059947 0.457208 3.280601
v -0.419506 0.070650 2.629796
v 0.454347 0.011829 2.650253
v 0.434690 0.118640 2.641341
v 0.405245 0.222678 2.639892
v 0.284789 0.354586 2.641558
v 0.110852 0.432030 2.663606
v -0.050037 0.443619 2.668070
v -0.212691 0.416706 2.659495
v -0.348891 0.253971 2.642458
v 0.049126 0.192836 3.950914
v -0.010833 0.160315 3.902277
v 0.261459 0.137693 4.020984
v 0.204807 0.182958 4.003012
v 0.141497 0.196949 3.984585
v -0.049336 0.087058 3.867714
v 0.838275 0.407063 3.880574
v 0.780581 0.456957 3.953779
v 0.714591 0.525341 3.982761
v 0.655300 0.591119 3.967680
v 0.619256 0.637662 3.915897
v 0.611286 0.657987 3.849133
v 0.622807 0.655434 3.783203
v 0.647736 0.633734 3.723529
v 0.696471 0.598002 3.675434
s 1
f 135 132 1
f 129 76 2 3
f 128 129 4 5
f 129 3 4
f 1 77 127 135
f 130 131 78 6
f 131 127 77 78
f 128 5 7
f 76 130 6 2
f 8 9 79 10
f 9 80 11 79
f 16 17 18 81
f 17 15 82 18
f 10 83 84 8
f 81 85 19 16
f 88 31 87 86
f 31 89 22 87
f 90 32 24 23
f 35 91 28 27
f 91 36 29 28
f 38 92 80 9
f 8 84 48 37
f 49 50 93 51
f 54 55 84 83
f 56 57 6 78
f 94 56 78 77
f 55 59 48 84
f 67 105 93 53
f 105 106 51 93
f 106 107 68 51
f 107 108 54 68
f 108 109 55 54
f 109 110 59 55
f 110 69 94 59
f 69 70 56 94
f 72 111 52 58
f 111 67 53 52
f 53 93 50 21
f 50 112 14 21
f 11 113 73 79
f 73 114 10 79
f 114 74 83 10
f 59 94 77 48
f 48 77 1 37
f 1 132 38 37
f 132 133 92 38
f 68 54 83 74
f 86 30 75 88
f 36 91 50 49
f 97 66 105 67
f 66 103 106 105
f 103 101 107 106
f 101 99 108 107
f 99 98 109 108
f 98 65 110 109
f 65 64 69 110
f 61 60 111 72
f 60 97 67 111
f 73 113 89 31
f 31 88 114 73
f 88 75 74 114
f 15 14 112 82
f 50 91 35 112
f 82 112 35 34
f 18 82 34 33
f 81 18 33 32
f 90 85 81 32
f 76 3 2
f 129 4 3 76
f 12 13 14 15
f 13 20 21 14
f 32 33 25 24
f 33 34 26 25
f 34 35 27 26
f 37 38 9 8
f 39 40 41 42
f 40 43 44 41
f 43 45 12 44
f 45 46 13 12
f 46 47 20 13
f 20 52 53 21
f 58 52 20 47
f 96 95 97 60
f 136 96 60 61
f 137 136 61 62
f 138 137 62 63
f 139 138 63 64
f 140 139 64 65
f 141 140 65 98
f 142 141 98 99
f 100 142 99 101
f 102 100 101 103
f 104 102 103 66
f 95 104 66 97
f 70 71 57 56
f 71 72 58 57
f 49 51 68 74
f 7 5 40 39
f 5 4 43 40
f 4 3 45 43
f 3 2 46 45
f 2 6 47 46
f 57 58 47 6
f 36 75 30 29
f 36 49 74 75
f 64 63 70 69
f 63 62 71 70
f 62 61 72 71
f 16 19 42 41
f 41 44 17 16
f 44 12 15 17
f 132 135 115
f 133 132 115 134
f 87 22 117 116
f 23 24 119 118
f 24 25 120 119
f 25 26 121 120
f 26 27 122 121
f 27 28 123 122
f 28 29 124 123
f 29 30 125 124
f 126 125 30 86
f 86 87 116 126
f 132 133 134
f 134 115 132
f 253 144 143
f 254 146 145
f 186 187 147
f 186 147 146 254
f 144 253 252 188
f 255 190 189 256
f 256 189 188 252
f 128 7 187 186
f 254 145 190 255
f 191 149 148 192
f 192 148 11 80
f 150 152 193 151
f 194 196 153 195
f 195 153 197 152
f 149 191 154 198
f 196 194 19 85
f 151 193 199 155
f 205 200 201 206
f 206 201 22 89
f 90 23 156 160
f 161 157 202 207
f 207 202 158 208
f 208 158 203 162
f 162 203 204 209
f 163 191 192 210
f 210 192 80 92
f 168 150 151 211
f 211 151 155 169
f 191 163 212 154
f 213 215 214 170
f 155 199 172 171
f 216 198 154 217
f 173 189 190 174
f 218 188 189 173
f 217 154 212 219
f 180 172 214 231
f 231 214 215 232
f 232 215 234 233
f 233 234 216 235
f 235 216 217 236
f 236 217 219 237
f 237 219 218 238
f 238 218 173 181
f 172 199 170 214
f 170 199 193 239
f 11 148 185 113
f 185 148 149 240
f 240 149 198 241
f 213 241 234 215
f 219 212 188 218
f 212 163 144 188
f 144 163 210 143
f 143 210 92 133
f 7 39 164 187
f 187 164 166 147
f 146 168 211 145
f 145 211 169 190
f 174 190 169 175
f 234 241 198 216
f 200 205 242 159
f 209 204 159 242
f 209 242 241 213
f 209 213 170 162
f 176 180 231 230
f 230 231 232 228
f 228 232 233 226
f 226 233 235 225
f 225 235 236 224
f 224 236 237 223
f 223 237 238 222
f 222 238 181 221
f 221 181 182 179
f 185 206 89 113
f 206 185 240 205
f 205 240 241 242
f 194 165 42 19
f 165 194 195 167
f 167 195 152 150
f 152 197 239 193
f 170 239 208 162
f 197 207 208 239
f 153 161 207 197
f 196 160 161 153
f 90 160 196 85
f 134 257 143
f 143 257 253
f 160 156 157 161
f 39 42 165 164
f 164 165 167 166
f 166 167 150 168
f 175 169 155 171
f 258 177 176 220
f 259 178 177 258
f 260 179 178 259
f 261 221 179 260
f 262 222 221 261
f 263 223 222 262
f 264 224 223 263
f 265 225 224 264
f 266 226 225 265
f 227 228 226 266
f 229 230 228 227
f 220 176 230 229
f 181 173 174 182
f 182 174 175 183
f 183 175 171 184
f 184 171 172 180
f 147 166 168 146
f 179 182 183 178
f 178 183 184 177
f 177 184 180 176
f 133 143 257 134
f 201 243 117 22
f 23 118 244 156
f 156 244 245 157
f 157 245 246 202
f 202 246 247 158
f 158 247 248 203
f 203 248 249 204
f 204 249 250 159
f 251 200 159 250
f 200 251 243 201
f 143 133 134
